<svg width="50" height="48" viewBox="0 0 50 48" fill="none" xmlns="http://www.w3.org/2000/svg">
<rect x="1" width="48" height="48" rx="24" fill="#1E1E1E"/>
<path d="M11.2464 9.90909V8.90909H10.2464V9.90909H11.2464ZM14.3146 9.90909L15.2378 9.52462L14.9814 8.90909H14.3146V9.90909ZM24.8686 35.25L23.9455 35.6345L24.2018 36.25H24.8686V35.25ZM25.1243 35.25V36.25H25.7911L26.0474 35.6345L25.1243 35.25ZM35.6783 9.90909V8.90909H35.0115L34.7551 9.52462L35.6783 9.90909ZM38.7464 9.90909H39.7464V8.90909H38.7464V9.90909ZM38.7464 39V40H39.7464V39H38.7464ZM36.2464 39H35.2464V40H36.2464V39ZM36.2464 15.5199H37.2464V14.5199H36.2464V15.5199ZM36.0192 15.5199V14.5199H35.3533L35.0965 15.1342L36.0192 15.5199ZM26.2038 39V40H26.8697L27.1265 39.3857L26.2038 39ZM23.7891 39L22.8664 39.3857L23.1232 40H23.7891V39ZM13.9737 15.5199L14.8964 15.1342L14.6396 14.5199H13.9737V15.5199ZM13.7464 15.5199V14.5199H12.7464V15.5199H13.7464ZM13.7464 39V40H14.7464V39H13.7464ZM11.2464 39H10.2464V40H11.2464V39ZM11.2464 10.9091H14.3146V8.90909H11.2464V10.9091ZM13.3915 10.2936L23.9455 35.6345L25.7917 34.8655L15.2378 9.52462L13.3915 10.2936ZM24.8686 36.25H25.1243V34.25H24.8686V36.25ZM26.0474 35.6345L36.6014 10.2936L34.7551 9.52462L24.2012 34.8655L26.0474 35.6345ZM35.6783 10.9091H38.7464V8.90909H35.6783V10.9091ZM37.7464 9.90909V39H39.7464V9.90909H37.7464ZM38.7464 38H36.2464V40H38.7464V38ZM37.2464 39V15.5199H35.2464V39H37.2464ZM36.2464 14.5199H36.0192V16.5199H36.2464V14.5199ZM35.0965 15.1342L25.2812 38.6143L27.1265 39.3857L36.9418 15.9056L35.0965 15.1342ZM26.2038 38H23.7891V40H26.2038V38ZM24.7117 38.6143L14.8964 15.1342L13.0511 15.9056L22.8664 39.3857L24.7117 38.6143ZM13.9737 14.5199H13.7464V16.5199H13.9737V14.5199ZM12.7464 15.5199V39H14.7464V15.5199H12.7464ZM13.7464 38H11.2464V40H13.7464V38ZM12.2464 39V9.90909H10.2464V39H12.2464Z" fill="#FF004C"/>
</svg>
