<?xml version="1.0" encoding="UTF-8"?>
<svg xmlns="http://www.w3.org/2000/svg" xmlns:xlink="http://www.w3.org/1999/xlink" viewBox="0 0 30 30" width="24px" height="24px">
<g id="surface245833094">
<path style=" stroke:none;fill-rule:nonzero;fill:rgb(40.000001%,40.000001%,40.000001%);fill-opacity:1;" d="M 6 4 C 4.894531 4 4 4.894531 4 6 L 4 24 C 4 25.105469 4.894531 26 6 26 L 24 26 C 25.105469 26 26 25.105469 26 24 L 26 6 C 26 4.894531 25.105469 4 24 4 Z M 17.5 11 L 20.058594 11 C 20.332031 11 20.558594 11.222656 20.558594 11.5 C 20.558594 11.777344 20.332031 12 20.058594 12 L 17.5 12 C 17.222656 12 17 11.777344 17 11.5 C 17 11.222656 17.222656 11 17.5 11 Z M 8.921875 11.386719 L 11.707031 11.386719 C 13.347656 11.386719 14.332031 12.1875 14.332031 13.496094 C 14.332031 14.394531 13.664062 15.179688 12.796875 15.308594 L 12.796875 15.414062 C 13.917969 15.496094 14.734375 16.339844 14.734375 17.433594 C 14.734375 18.917969 13.613281 19.859375 11.804688 19.859375 L 8.921875 19.859375 C 8.410156 19.859375 8 19.449219 8 18.9375 L 8 12.304688 C 8 11.796875 8.410156 11.382812 8.921875 11.382812 Z M 9.773438 12.738281 L 9.773438 14.894531 L 11.105469 14.894531 C 12.0625 14.898438 12.585938 14.503906 12.585938 13.824219 C 12.585938 13.148438 12.101562 12.738281 11.253906 12.738281 Z M 18.964844 13.238281 C 20.871094 13.238281 22 14.457031 22 16.511719 L 22 17.03125 L 17.554688 17.03125 L 17.554688 17.121094 C 17.578125 18.085938 18.140625 18.683594 19.035156 18.683594 C 19.710938 18.683594 20.171875 18.445312 20.355469 18.015625 L 21.949219 18.015625 C 21.6875 19.238281 20.574219 20 18.988281 20 C 17.011719 20 15.851562 18.753906 15.851562 16.652344 C 15.851562 14.542969 17.035156 13.238281 18.964844 13.238281 Z M 18.96875 14.550781 C 18.175781 14.550781 17.617188 15.101562 17.5625 15.941406 L 20.320312 15.941406 C 20.285156 15.085938 19.769531 14.550781 18.96875 14.550781 Z M 9.773438 16.09375 L 9.773438 18.503906 L 11.355469 18.503906 C 12.375 18.503906 12.929688 18.074219 12.929688 17.28125 C 12.929688 16.503906 12.359375 16.09375 11.3125 16.09375 Z M 9.773438 16.09375 "/>
</g>
</svg>
