<?xml version="1.0" encoding="UTF-8"?>
<svg xmlns="http://www.w3.org/2000/svg" xmlns:xlink="http://www.w3.org/1999/xlink" viewBox="0 0 24 24" width="24px" height="24px">
<g id="surface251227530">
<path style=" stroke:none;fill-rule:nonzero;fill:rgb(100%,0%,29.803923%);fill-opacity:1;" d="M 8 2.398438 C 4.910156 2.398438 2.398438 4.914062 2.398438 8 L 2.398438 16 C 2.398438 19.089844 4.914062 21.601562 8 21.601562 L 16 21.601562 C 19.089844 21.601562 21.601562 19.085938 21.601562 16 L 21.601562 8 C 21.601562 4.910156 19.085938 2.398438 16 2.398438 Z M 17.601562 5.601562 C 18.042969 5.601562 18.398438 5.957031 18.398438 6.398438 C 18.398438 6.839844 18.042969 7.199219 17.601562 7.199219 C 17.160156 7.199219 16.800781 6.839844 16.800781 6.398438 C 16.800781 5.957031 17.160156 5.601562 17.601562 5.601562 Z M 12 7.199219 C 14.648438 7.199219 16.800781 9.351562 16.800781 12 C 16.800781 14.648438 14.648438 16.800781 12 16.800781 C 9.351562 16.800781 7.199219 14.648438 7.199219 12 C 7.199219 9.351562 9.351562 7.199219 12 7.199219 Z M 12 8.800781 C 10.234375 8.800781 8.800781 10.234375 8.800781 12 C 8.800781 13.765625 10.234375 15.199219 12 15.199219 C 13.765625 15.199219 15.199219 13.765625 15.199219 12 C 15.199219 10.234375 13.765625 8.800781 12 8.800781 Z M 12 8.800781 "/>
</g>
</svg>
