<svg width="98" height="48" viewBox="0 0 98 48" fill="none" xmlns="http://www.w3.org/2000/svg">
<path d="M28.8539 37H23.7739L24.6939 25.32C25.0139 20.8667 25.4139 17.0533 25.8939 13.88L18.1339 34H13.1339L10.6139 13.96C10.4272 17.1333 9.85391 21.04 8.89391 25.68L6.69391 37H1.61391L7.65391 9.36H14.0939L16.3339 28.92L23.5739 9.36H30.5739L28.8539 37ZM52.5905 20.84C52.5905 23.56 51.3505 25.5333 48.8705 26.76C46.3905 27.9867 43.0705 28.8133 38.9105 29.24C39.0171 32.1733 40.3905 33.64 43.0305 33.64C43.9905 33.64 44.9105 33.4933 45.7905 33.2C46.6705 32.88 47.5905 32.3733 48.5505 31.68L50.5105 34.88C47.9505 36.6933 45.2705 37.6 42.4705 37.6C39.6438 37.6 37.4838 36.8267 35.9905 35.28C34.4971 33.7067 33.7505 31.5467 33.7505 28.8C33.7505 26.6667 34.1371 24.5733 34.9105 22.52C35.7105 20.44 36.9638 18.7067 38.6705 17.32C40.4038 15.9333 42.6038 15.24 45.2705 15.24C46.8171 15.24 48.1371 15.4933 49.2305 16C50.3505 16.5067 51.1905 17.1867 51.7505 18.04C52.3105 18.8933 52.5905 19.8267 52.5905 20.84ZM39.1505 25.84C41.9771 25.5733 44.0571 25.0533 45.3905 24.28C46.7238 23.48 47.3905 22.4 47.3905 21.04C47.3905 20.48 47.2038 19.9867 46.8305 19.56C46.4571 19.1067 45.8438 18.88 44.9905 18.88C43.3105 18.88 41.9905 19.5467 41.0305 20.88C40.0971 22.2133 39.4705 23.8667 39.1505 25.84ZM60.3261 32L60.2861 32.44C60.2861 32.8133 60.3661 33.08 60.5261 33.24C60.6861 33.4 60.9261 33.48 61.2461 33.48C61.5128 33.48 61.9128 33.4 62.4461 33.24L63.2061 36.84C62.1128 37.3467 60.9394 37.6 59.6861 37.6C58.2728 37.6 57.1794 37.2267 56.4061 36.48C55.6328 35.7067 55.2461 34.5867 55.2461 33.12C55.2461 32.56 55.2728 32.12 55.3261 31.8L58.7661 7.36L63.8861 6.8L60.3261 32ZM71.8495 32L71.8095 32.44C71.8095 32.8133 71.8895 33.08 72.0495 33.24C72.2095 33.4 72.4495 33.48 72.7695 33.48C73.0362 33.48 73.4362 33.4 73.9695 33.24L74.7295 36.84C73.6362 37.3467 72.4629 37.6 71.2095 37.6C69.7962 37.6 68.7029 37.2267 67.9295 36.48C67.1562 35.7067 66.7695 34.5867 66.7695 33.12C66.7695 32.56 66.7962 32.12 66.8495 31.8L70.2895 7.36L75.4095 6.8L71.8495 32ZM97.1823 15.84L87.4623 37H81.4223L77.4623 15.84H82.9023L84.9823 32.88L91.8223 15.84H97.1823Z" fill="white"/>
</svg>
