<?xml version="1.0" encoding="UTF-8"?>
<svg xmlns="http://www.w3.org/2000/svg" xmlns:xlink="http://www.w3.org/1999/xlink" viewBox="0 0 24 24" width="24px" height="24px">
<g id="surface251209359">
<path style=" stroke:none;fill-rule:nonzero;fill:rgb(100%,0%,29.803923%);fill-opacity:1;" d="M 6.71875 1.914062 C 4.074219 1.914062 1.921875 4.070312 1.921875 6.714844 L 1.921875 17.273438 C 1.921875 19.921875 4.074219 22.074219 6.71875 22.074219 L 17.28125 22.074219 C 19.925781 22.074219 22.078125 19.921875 22.078125 17.273438 L 22.078125 6.714844 C 22.078125 4.070312 19.925781 1.914062 17.28125 1.914062 Z M 8.644531 5.777344 C 8.945312 5.789062 9.222656 5.957031 9.386719 6.21875 C 9.578125 6.515625 9.875 6.976562 10.257812 7.578125 C 10.609375 8.125 10.632812 8.832031 10.320312 9.402344 L 9.617188 10.402344 C 9.425781 10.675781 9.386719 11.019531 9.515625 11.324219 C 9.714844 11.800781 10.097656 12.53125 10.785156 13.214844 C 11.46875 13.902344 12.199219 14.285156 12.675781 14.484375 C 12.980469 14.613281 13.324219 14.574219 13.597656 14.382812 L 14.597656 13.679688 C 15.167969 13.367188 15.875 13.394531 16.421875 13.742188 C 17.023438 14.125 17.484375 14.421875 17.78125 14.613281 C 18.042969 14.777344 18.210938 15.054688 18.222656 15.355469 C 18.296875 17.066406 16.972656 17.761719 16.585938 17.761719 C 16.320312 17.761719 13.113281 18.125 9.492188 14.507812 C 5.875 10.886719 6.238281 7.679688 6.238281 7.414062 C 6.238281 7.027344 6.933594 5.703125 8.644531 5.777344 Z M 8.644531 5.777344 "/>
</g>
</svg>
